HIERARCHY
ROOT hip
{
	OFFSET 0.000000 0.000000 0.000000 
	CHANNELS 6 Xposition Yposition Zposition Xrotation Zrotation Yrotation
	JOINT abdomen
	{
		OFFSET 0.000000 3.402643 0.000000 
		CHANNELS 3 Xrotation Zrotation Yrotation
		JOINT chest
		{
			OFFSET 0.000000 8.438565 -0.680529 
			CHANNELS 3 Xrotation Zrotation Yrotation
			JOINT neck
			{
				OFFSET 0.000000 10.207942 -0.272212 
				CHANNELS 3 Xrotation Zrotation Yrotation
				JOINT head
				{
					OFFSET 0.000000 3.130431 0.000000 
					CHANNELS 3 Xrotation Zrotation Yrotation
					End Site
					{
						OFFSET 0.000000 3.130435 0.000000 
					}
				}
			}
			JOINT lCollar
			{
				OFFSET 3.470700 6.669187 -0.816635 
				CHANNELS 3 Yrotation Zrotation Xrotation
				JOINT lShldr
				{
					OFFSET 3.198488 0.000000 0.000000 
					CHANNELS 3 Zrotation Yrotation Xrotation
					JOINT lForeArm
					{
						OFFSET 10.139888 0.000000 0.000000 
						CHANNELS 3 Yrotation Zrotation Xrotation
						JOINT lHand
						{
							OFFSET 8.370511 0.000000 0.000000 
							CHANNELS 3 Zrotation Yrotation Xrotation
							End Site
							{
								OFFSET 4.083176 0.000000 0.000000 
							}
						}
					}
				}
			}
			JOINT rCollar
			{
				OFFSET -3.470700 6.669187 -0.816635 
				CHANNELS 3 Yrotation Zrotation Xrotation
				JOINT rShldr
				{
					OFFSET -3.198488 0.000000 0.000000 
					CHANNELS 3 Zrotation Yrotation Xrotation
					JOINT rForeArm
					{
						OFFSET -10.139888 0.000000 0.000000 
						CHANNELS 3 Yrotation Zrotation Xrotation
						JOINT rHand
						{
							OFFSET -8.370511 0.000000 0.000000 
							CHANNELS 3 Zrotation Yrotation Xrotation
							End Site
							{
								OFFSET -4.083176 0.000000 0.000000 
							}
						}
					}
				}
			}
		}
	}
	JOINT lThigh
	{
		OFFSET 5.308129 -1.633274 1.361059 
		CHANNELS 3 Xrotation Zrotation Yrotation
		JOINT lShin
		{
			OFFSET -2.041588 -20.007561 0.000000 
			CHANNELS 3 Xrotation Zrotation Yrotation
			JOINT lFoot
			{
				OFFSET 0.000000 -19.190928 -1.224953 
				CHANNELS 3 Xrotation Yrotation Zrotation
				End Site
				{
					OFFSET 0.000000 -2.449906 4.627600 
				}
			}
		}
	}
	JOINT rThigh
	{
		OFFSET -5.308129 -1.633274 1.361059 
		CHANNELS 3 Xrotation Zrotation Yrotation
		JOINT rShin
		{
			OFFSET 2.041588 -20.007561 0.000000 
			CHANNELS 3 Xrotation Zrotation Yrotation
			JOINT rFoot
			{
				OFFSET 0.000000 -19.190928 -1.224953 
				CHANNELS 3 Xrotation Yrotation Zrotation
				End Site
				{
					OFFSET 0.000000 -2.449906 4.627600 
				}
			}
		}
	}
}
MOTION
Frames: 6
Frame Time: 0.016667
-0.031528 50.503986 0.649048 -6.607597 -1.103402 0.820348 23.774302 -0.985732 1.992396 -22.378481 2.429502 2.404737 -3.258487 5.665854 5.653350 6.544664 -5.393899 6.600869 -2.187557 -0.331658 -0.009758 -76.322571 1.209290 34.781609 -22.742081 1.206195 12.589257 -19.493635 10.829743 -3.815126 10.390972 2.068551 -0.009952 80.527596 -12.192164 -8.562702 24.984797 -3.523979 42.586689 21.366035 -6.047725 -2.370748 2.710960 2.525705 -2.850420 9.702522 -1.767328 -1.258018 -8.804419 -5.496115 -13.142609 4.999692 -11.433989 1.353909 10.365521 1.715781 1.270361 -4.895139 -12.249652 10.859569 
-0.034098 50.504436 0.657943 -6.655807 -1.113178 0.781292 23.813366 -0.985732 1.992396 -22.348373 2.458791 2.394983 -3.203846 5.665278 5.711654 6.480538 -5.393258 6.660118 -2.197324 -0.341422 -0.009758 -76.342148 1.185356 34.741558 -22.763159 1.211495 12.587494 -19.524649 10.846200 -3.827039 10.390969 2.049020 -0.009949 80.516403 -12.196926 -8.518471 25.059299 -3.525872 42.452309 21.367174 -6.075008 -2.381361 2.751456 2.536931 -2.871298 9.731635 -1.769041 -1.269451 -8.803809 -5.409236 -13.134229 5.068202 -11.433723 1.292602 10.286727 1.715813 1.256441 -4.880843 -12.155558 10.859562 
-0.036416 50.504623 0.665885 -6.694045 -1.122955 0.732473 23.852934 -0.975978 1.982633 -22.327208 2.497819 2.394985 -3.162875 5.645459 5.751486 6.430088 -5.383237 6.689284 -2.197329 -0.370719 -0.009758 -76.352066 1.177081 34.696972 -22.756386 1.211809 12.615593 -19.543861 10.835691 -3.827507 10.400729 2.019722 -0.009943 80.495911 -12.195064 -8.485442 25.093409 -3.515725 42.312782 21.380051 -6.147352 -2.411754 2.798203 2.554808 -2.921280 9.740506 -1.778696 -1.251091 -8.825677 -5.351549 -13.109181 5.136225 -11.422864 1.242263 10.225506 1.725127 1.263675 -4.857359 -12.091081 10.888073 
-0.038733 50.504807 0.673826 -6.732383 -1.142497 0.683653 23.882229 -0.975978 1.982633 -22.297119 2.527109 2.385230 -3.123881 5.616020 5.780635 6.381711 -5.363625 6.708730 -2.197334 -0.400016 -0.009758 -76.362007 1.168785 34.652386 -22.759285 1.206228 12.651606 -19.552530 10.816635 -3.822923 10.410492 2.000188 -0.009940 80.485542 -12.193333 -8.464115 25.134521 -3.499573 42.170586 21.392963 -6.219684 -2.441134 2.850591 2.566721 -2.932951 9.771227 -1.777026 -1.233079 -8.848486 -5.301136 -13.099177 5.195922 -11.415282 1.180266 10.166186 1.724785 1.260525 -4.835187 -12.028242 10.884040 
-0.040956 50.504921 0.681157 -6.770886 -1.162036 0.644597 23.912029 -0.966224 1.972870 -22.275959 2.566137 2.385231 -3.080946 5.567536 5.769960 6.328379 -5.334742 6.688378 -2.197339 -0.429313 -0.009758 -76.373573 1.148715 34.614868 -22.750261 1.222158 12.716611 -19.571745 10.806131 -3.823376 10.420254 1.970890 -0.009935 80.474586 -12.199635 -8.431575 25.141699 -3.491712 42.027771 21.405914 -6.292005 -2.470535 2.897698 2.584903 -2.953398 9.792723 -1.767594 -1.233542 -8.878977 -5.243416 -13.085662 5.251591 -11.398780 1.132304 10.126279 1.724684 1.267877 -4.806773 -11.911981 10.904058 
-0.043178 50.505035 0.688485 -6.809364 -1.181575 0.605541 23.931726 -0.966229 1.963106 -22.255650 2.595427 2.375918 -3.047758 5.519050 5.759294 6.266399 -5.296156 6.668937 -2.187580 -0.468377 -0.009758 -76.385109 1.138121 34.579670 -22.739143 1.228585 12.781631 -19.590334 10.786427 -3.820606 10.439780 1.951356 -0.009931 80.463638 -12.205927 -8.399032 25.156464 -3.473610 41.891106 21.419308 -6.373405 -2.504583 2.926681 2.594510 -2.973715 9.822120 -1.767653 -1.244871 -8.919762 -5.184197 -13.083095 5.310602 -11.380182 1.073347 10.076812 1.724531 1.265252 -4.794726 -11.821744 10.923807 
